<?xml version="1.0" encoding="UTF-8" standalone="no"?>
<svg
   version="1.1"
   id="svg2"
   xml:space="preserve"
   width="90.800003"
   height="100.724"
   viewBox="0 0 90.800003 100.724"
   sodipodi:docname="favicon_aratech.svg"
   inkscape:version="1.2.2 (732a01da63, 2022-12-09)"
   inkscape:export-filename="H:\Mon Drive\Aratech\Logos\logo_aratech_carre-100x120.png"
   inkscape:export-xdpi="67.874771"
   inkscape:export-ydpi="67.874771"
   xmlns:inkscape="http://www.inkscape.org/namespaces/inkscape"
   xmlns:sodipodi="http://sodipodi.sourceforge.net/DTD/sodipodi-0.dtd"
   xmlns="http://www.w3.org/2000/svg"
   xmlns:svg="http://www.w3.org/2000/svg"
   xmlns:rdf="http://www.w3.org/1999/02/22-rdf-syntax-ns#"
   xmlns:cc="http://creativecommons.org/ns#"
   xmlns:dc="http://purl.org/dc/elements/1.1/"><metadata
     id="metadata8"><rdf:RDF><cc:Work
         rdf:about=""><dc:format>image/svg+xml</dc:format><dc:type
           rdf:resource="http://purl.org/dc/dcmitype/StillImage" /></cc:Work></rdf:RDF></metadata><defs
     id="defs6"><clipPath
       clipPathUnits="userSpaceOnUse"
       id="clipPath18"><path
         d="m 389.767,675.961 c 0,-2.934 2.379,-5.313 5.314,-5.313 v 0 c 2.935,0 5.314,2.379 5.314,5.313 v 0 c 0,2.935 -2.379,5.314 -5.314,5.314 v 0 c -2.935,0 -5.314,-2.379 -5.314,-5.314"
         id="path16" /></clipPath><linearGradient
       x1="0"
       y1="0"
       x2="1"
       y2="0"
       gradientUnits="userSpaceOnUse"
       gradientTransform="matrix(10.627153,0,0,-10.627153,389.76779,675.96149)"
       spreadMethod="pad"
       id="linearGradient34"><stop
         style="stop-opacity:1;stop-color:#761e90"
         offset="0"
         id="stop24" /><stop
         style="stop-opacity:1;stop-color:#6c2291"
         offset="0.4414805"
         id="stop26" /><stop
         style="stop-opacity:1;stop-color:#6c2291"
         offset="0.476459"
         id="stop28" /><stop
         style="stop-opacity:1;stop-color:#612691"
         offset="0.86960815"
         id="stop30" /><stop
         style="stop-opacity:1;stop-color:#612691"
         offset="1"
         id="stop32" /></linearGradient><clipPath
       clipPathUnits="userSpaceOnUse"
       id="clipPath44"><path
         d="m 364.453,674.334 c 0,-4.583 3.714,-8.297 8.296,-8.297 v 0 c 4.582,0 8.297,3.714 8.297,8.297 v 0 c 0,4.581 -3.715,8.296 -8.297,8.296 v 0 c -4.582,0 -8.296,-3.715 -8.296,-8.296"
         id="path42" /></clipPath><linearGradient
       x1="0"
       y1="0"
       x2="1"
       y2="0"
       gradientUnits="userSpaceOnUse"
       gradientTransform="matrix(16.592922,0,0,-16.592922,364.45279,674.33337)"
       spreadMethod="pad"
       id="linearGradient60"><stop
         style="stop-opacity:1;stop-color:#b80f8e"
         offset="0"
         id="stop50" /><stop
         style="stop-opacity:1;stop-color:#b80f8e"
         offset="0.25862573"
         id="stop52" /><stop
         style="stop-opacity:1;stop-color:#a6128e"
         offset="0.511553"
         id="stop54" /><stop
         style="stop-opacity:1;stop-color:#a6128e"
         offset="0.61668786"
         id="stop56" /><stop
         style="stop-opacity:1;stop-color:#95168f"
         offset="1"
         id="stop58" /></linearGradient><clipPath
       clipPathUnits="userSpaceOnUse"
       id="clipPath70"><path
         d="m 366.594,709.069 c -3.24,-3.24 -3.24,-8.493 0,-11.733 v 0 c 3.24,-3.24 8.493,-3.24 11.733,0 v 0 c 3.241,3.24 3.241,8.493 0,11.733 v 0 c -1.62,1.62 -3.743,2.43 -5.867,2.43 v 0 c -2.123,0 -4.246,-0.81 -5.866,-2.43"
         id="path68" /></clipPath><linearGradient
       x1="0"
       y1="0"
       x2="1"
       y2="0"
       gradientUnits="userSpaceOnUse"
       gradientTransform="matrix(11.732967,11.732967,11.732967,-11.732967,366.5943,697.33612)"
       spreadMethod="pad"
       id="linearGradient86"><stop
         style="stop-opacity:1;stop-color:#b80f8e"
         offset="0"
         id="stop76" /><stop
         style="stop-opacity:1;stop-color:#b80f8e"
         offset="0.25862573"
         id="stop78" /><stop
         style="stop-opacity:1;stop-color:#a6128e"
         offset="0.511553"
         id="stop80" /><stop
         style="stop-opacity:1;stop-color:#a6128e"
         offset="0.61668786"
         id="stop82" /><stop
         style="stop-opacity:1;stop-color:#95168f"
         offset="1"
         id="stop84" /></linearGradient><clipPath
       clipPathUnits="userSpaceOnUse"
       id="clipPath96"><path
         d="M 0,841.89 H 595.276 V 0 H 0 Z"
         id="path94" /></clipPath><clipPath
       clipPathUnits="userSpaceOnUse"
       id="clipPath108"><path
         d="m 390.722,663.014 c -1.818,-4.205 0.116,-9.089 4.321,-10.908 v 0 c 4.206,-1.819 9.089,0.115 10.908,4.321 v 0 c 1.819,4.204 -0.115,9.089 -4.321,10.908 v 0 c -1.073,0.464 -2.19,0.684 -3.289,0.684 v 0 c -3.209,0 -6.264,-1.873 -7.619,-5.005"
         id="path106" /></clipPath><linearGradient
       x1="0"
       y1="0"
       x2="1"
       y2="0"
       gradientUnits="userSpaceOnUse"
       gradientTransform="matrix(15.229255,-6.5874767,-6.5874767,-15.229255,390.7222,663.01398)"
       spreadMethod="pad"
       id="linearGradient124"><stop
         style="stop-opacity:1;stop-color:#5f2692"
         offset="0"
         id="stop114" /><stop
         style="stop-opacity:1;stop-color:#5f2692"
         offset="0.25862573"
         id="stop116" /><stop
         style="stop-opacity:1;stop-color:#4d2c93"
         offset="0.511553"
         id="stop118" /><stop
         style="stop-opacity:1;stop-color:#4d2c93"
         offset="0.61668786"
         id="stop120" /><stop
         style="stop-opacity:1;stop-color:#3e3396"
         offset="1"
         id="stop122" /></linearGradient><clipPath
       clipPathUnits="userSpaceOnUse"
       id="clipPath134"><path
         d="m 415.538,674.962 c 0,-4.582 3.713,-8.296 8.296,-8.296 v 0 c 4.582,0 8.296,3.714 8.296,8.296 v 0 c 0,4.582 -3.714,8.296 -8.296,8.296 v 0 c -4.583,0 -8.296,-3.714 -8.296,-8.296"
         id="path132" /></clipPath><linearGradient
       x1="0"
       y1="0"
       x2="1"
       y2="0"
       gradientUnits="userSpaceOnUse"
       gradientTransform="matrix(11.732967,11.732967,11.732967,-11.732967,417.96759,669.09546)"
       spreadMethod="pad"
       id="linearGradient150"><stop
         style="stop-opacity:1;stop-color:#5f2692"
         offset="0"
         id="stop140" /><stop
         style="stop-opacity:1;stop-color:#5f2692"
         offset="0.25862573"
         id="stop142" /><stop
         style="stop-opacity:1;stop-color:#4d2c93"
         offset="0.511553"
         id="stop144" /><stop
         style="stop-opacity:1;stop-color:#4d2c93"
         offset="0.61668786"
         id="stop146" /><stop
         style="stop-opacity:1;stop-color:#393496"
         offset="1"
         id="stop148" /></linearGradient><clipPath
       clipPathUnits="userSpaceOnUse"
       id="clipPath160"><path
         d="m 414.788,704.417 c 0,-4.582 3.714,-8.297 8.296,-8.297 v 0 c 4.582,0 8.297,3.715 8.297,8.297 v 0 c 0,4.581 -3.715,8.296 -8.297,8.296 v 0 c -4.582,0 -8.296,-3.715 -8.296,-8.296"
         id="path158" /></clipPath><linearGradient
       x1="0"
       y1="0"
       x2="1"
       y2="0"
       gradientUnits="userSpaceOnUse"
       gradientTransform="matrix(16.592922,0,0,-16.592922,414.78796,704.41675)"
       spreadMethod="pad"
       id="linearGradient176"><stop
         style="stop-opacity:1;stop-color:#2f3897"
         offset="0"
         id="stop166" /><stop
         style="stop-opacity:1;stop-color:#2f3897"
         offset="0.25862573"
         id="stop168" /><stop
         style="stop-opacity:1;stop-color:#2d3997"
         offset="0.511553"
         id="stop170" /><stop
         style="stop-opacity:1;stop-color:#2d3997"
         offset="0.61668786"
         id="stop172" /><stop
         style="stop-opacity:1;stop-color:#2d3997"
         offset="1"
         id="stop174" /></linearGradient><clipPath
       clipPathUnits="userSpaceOnUse"
       id="clipPath186"><path
         d="m 383.09,690.131 c -2.749,-1.029 -4.142,-4.091 -3.114,-6.839 v 0 c 1.029,-2.749 4.092,-4.142 6.839,-3.113 v 0 c 2.748,1.028 4.143,4.09 3.114,6.839 v 0 c -0.799,2.134 -2.824,3.451 -4.977,3.451 v 0 c -0.619,0 -1.249,-0.109 -1.862,-0.338"
         id="path184" /></clipPath><linearGradient
       x1="0"
       y1="0"
       x2="1"
       y2="0"
       gradientUnits="userSpaceOnUse"
       gradientTransform="matrix(9.9525928,3.725894,3.725894,-9.9525928,379.97626,683.29163)"
       spreadMethod="pad"
       id="linearGradient202"><stop
         style="stop-opacity:1;stop-color:#96168f"
         offset="0"
         id="stop192" /><stop
         style="stop-opacity:1;stop-color:#8f188f"
         offset="0.4414805"
         id="stop194" /><stop
         style="stop-opacity:1;stop-color:#8f188f"
         offset="0.476459"
         id="stop196" /><stop
         style="stop-opacity:1;stop-color:#871a8f"
         offset="0.86960815"
         id="stop198" /><stop
         style="stop-opacity:1;stop-color:#871a8f"
         offset="1"
         id="stop200" /></linearGradient><clipPath
       clipPathUnits="userSpaceOnUse"
       id="clipPath212"><path
         d="m 384.068,702.206 c -2.076,-2.075 -2.076,-5.44 0,-7.515 v 0 c 2.074,-2.075 5.439,-2.075 7.514,0 v 0 c 2.075,2.075 2.075,5.44 0,7.515 v 0 c -1.038,1.037 -2.398,1.556 -3.758,1.556 v 0 c -1.359,0 -2.719,-0.519 -3.756,-1.556"
         id="path210" /></clipPath><linearGradient
       x1="0"
       y1="0"
       x2="1"
       y2="0"
       gradientUnits="userSpaceOnUse"
       gradientTransform="matrix(7.5145321,7.5145321,7.5145321,-7.5145321,384.06723,694.69116)"
       spreadMethod="pad"
       id="linearGradient228"><stop
         style="stop-opacity:1;stop-color:#8c198f"
         offset="0"
         id="stop218" /><stop
         style="stop-opacity:1;stop-color:#831b8f"
         offset="0.4414805"
         id="stop220" /><stop
         style="stop-opacity:1;stop-color:#831b8f"
         offset="0.476459"
         id="stop222" /><stop
         style="stop-opacity:1;stop-color:#732090"
         offset="0.86960815"
         id="stop224" /><stop
         style="stop-opacity:1;stop-color:#732090"
         offset="1"
         id="stop226" /></linearGradient><clipPath
       clipPathUnits="userSpaceOnUse"
       id="clipPath238"><path
         d="m 399.032,707.663 c -2.748,-1.03 -4.143,-4.092 -3.114,-6.839 v 0 c 1.03,-2.749 4.091,-4.143 6.84,-3.114 v 0 c 2.748,1.029 4.143,4.091 3.113,6.839 v 0 c -0.8,2.135 -2.825,3.452 -4.977,3.452 v 0 c -0.619,0 -1.248,-0.109 -1.862,-0.338"
         id="path236" /></clipPath><linearGradient
       x1="0"
       y1="0"
       x2="1"
       y2="0"
       gradientUnits="userSpaceOnUse"
       gradientTransform="matrix(9.9525928,3.725894,3.725894,-9.9525928,395.91843,700.82324)"
       spreadMethod="pad"
       id="linearGradient254"><stop
         style="stop-opacity:1;stop-color:#652591"
         offset="0"
         id="stop244" /><stop
         style="stop-opacity:1;stop-color:#5b2892"
         offset="0.4414805"
         id="stop246" /><stop
         style="stop-opacity:1;stop-color:#5b2892"
         offset="0.476459"
         id="stop248" /><stop
         style="stop-opacity:1;stop-color:#4c2c93"
         offset="0.86960815"
         id="stop250" /><stop
         style="stop-opacity:1;stop-color:#4c2c93"
         offset="1"
         id="stop252" /></linearGradient><clipPath
       clipPathUnits="userSpaceOnUse"
       id="clipPath264"><path
         d="m 405.86,693.741 c -0.252,-2.924 1.915,-5.498 4.838,-5.751 v 0 c 2.924,-0.252 5.498,1.913 5.75,4.837 v 0 c 0.252,2.924 -1.913,5.499 -4.837,5.75 v 0 c -0.155,0.014 -0.31,0.02 -0.463,0.02 v 0 c -2.728,0 -5.048,-2.089 -5.288,-4.856"
         id="path262" /></clipPath><linearGradient
       x1="0"
       y1="0"
       x2="1"
       y2="0"
       gradientUnits="userSpaceOnUse"
       gradientTransform="matrix(10.587859,-0.9130358,-0.9130358,-10.587859,405.86069,693.74042)"
       spreadMethod="pad"
       id="linearGradient280"><stop
         style="stop-opacity:1;stop-color:#4a2e94"
         offset="0"
         id="stop270" /><stop
         style="stop-opacity:1;stop-color:#403396"
         offset="0.4414805"
         id="stop272" /><stop
         style="stop-opacity:1;stop-color:#403396"
         offset="0.476459"
         id="stop274" /><stop
         style="stop-opacity:1;stop-color:#393496"
         offset="0.86960815"
         id="stop276" /><stop
         style="stop-opacity:1;stop-color:#393496"
         offset="1"
         id="stop278" /></linearGradient><clipPath
       clipPathUnits="userSpaceOnUse"
       id="clipPath290"><path
         d="m 403.582,682.857 c -1.658,-2.422 -1.039,-5.729 1.382,-7.386 v 0 c 2.422,-1.659 5.729,-1.04 7.386,1.381 v 0 c 1.659,2.421 1.04,5.729 -1.381,7.386 v 0 c -0.918,0.629 -1.964,0.93 -2.998,0.93 v 0 c -1.694,0 -3.36,-0.808 -4.389,-2.311"
         id="path288" /></clipPath><linearGradient
       x1="0"
       y1="0"
       x2="1"
       y2="0"
       gradientUnits="userSpaceOnUse"
       gradientTransform="matrix(8.768425,-6.0042572,-6.0042572,-8.768425,403.58209,682.85657)"
       spreadMethod="pad"
       id="linearGradient306"><stop
         style="stop-opacity:1;stop-color:#532a93"
         offset="0"
         id="stop296" /><stop
         style="stop-opacity:1;stop-color:#482f94"
         offset="0.4414805"
         id="stop298" /><stop
         style="stop-opacity:1;stop-color:#482f94"
         offset="0.476459"
         id="stop300" /><stop
         style="stop-opacity:1;stop-color:#3d3396"
         offset="0.86960815"
         id="stop302" /><stop
         style="stop-opacity:1;stop-color:#3d3396"
         offset="1"
         id="stop304" /></linearGradient><clipPath
       clipPathUnits="userSpaceOnUse"
       id="clipPath316"><path
         d="m 365.742,689.179 c 0,-1.395 1.131,-2.525 2.525,-2.525 v 0 c 1.395,0 2.526,1.13 2.526,2.525 v 0 c 0,1.395 -1.131,2.525 -2.526,2.525 v 0 c -1.394,0 -2.525,-1.13 -2.525,-2.525"
         id="path314" /></clipPath><linearGradient
       x1="0"
       y1="0"
       x2="1"
       y2="0"
       gradientUnits="userSpaceOnUse"
       gradientTransform="matrix(5.0502467,0,0,-5.0502467,365.74258,689.17902)"
       spreadMethod="pad"
       id="linearGradient328"><stop
         style="stop-opacity:1;stop-color:#c80b8e"
         offset="0"
         id="stop322" /><stop
         style="stop-opacity:1;stop-color:#bb0d8e"
         offset="0.68244479"
         id="stop324" /><stop
         style="stop-opacity:1;stop-color:#bb0d8e"
         offset="1"
         id="stop326" /></linearGradient><clipPath
       clipPathUnits="userSpaceOnUse"
       id="clipPath338"><path
         d="m 379.652,716.326 c 0,-1.395 1.131,-2.525 2.526,-2.525 v 0 c 1.394,0 2.525,1.13 2.525,2.525 v 0 c 0,1.395 -1.131,2.526 -2.525,2.526 v 0 c -1.395,0 -2.526,-1.131 -2.526,-2.526"
         id="path336" /></clipPath><linearGradient
       x1="0"
       y1="0"
       x2="1"
       y2="0"
       gradientUnits="userSpaceOnUse"
       gradientTransform="matrix(5.0502467,0,0,-5.0502467,379.65244,716.32605)"
       spreadMethod="pad"
       id="linearGradient350"><stop
         style="stop-opacity:1;stop-color:#751f90"
         offset="0"
         id="stop344" /><stop
         style="stop-opacity:1;stop-color:#6d2291"
         offset="0.68244479"
         id="stop346" /><stop
         style="stop-opacity:1;stop-color:#6d2291"
         offset="1"
         id="stop348" /></linearGradient><clipPath
       clipPathUnits="userSpaceOnUse"
       id="clipPath360"><path
         d="m 380.801,662.065 c 0,-1.394 1.13,-2.525 2.525,-2.525 v 0 c 1.394,0 2.526,1.131 2.526,2.525 v 0 c 0,1.395 -1.132,2.526 -2.526,2.526 v 0 c -1.395,0 -2.525,-1.131 -2.525,-2.526"
         id="path358" /></clipPath><linearGradient
       x1="0"
       y1="0"
       x2="1"
       y2="0"
       gradientUnits="userSpaceOnUse"
       gradientTransform="matrix(5.0502467,0,0,-5.0502467,380.80084,662.06537)"
       spreadMethod="pad"
       id="linearGradient372"><stop
         style="stop-opacity:1;stop-color:#7b1d8f"
         offset="0"
         id="stop366" /><stop
         style="stop-opacity:1;stop-color:#652388"
         offset="0.68244479"
         id="stop368" /><stop
         style="stop-opacity:1;stop-color:#652388"
         offset="1"
         id="stop370" /></linearGradient><clipPath
       clipPathUnits="userSpaceOnUse"
       id="clipPath382"><path
         d="m 409.987,662.065 c 0,-1.394 1.131,-2.525 2.525,-2.525 v 0 c 1.395,0 2.526,1.131 2.526,2.525 v 0 c 0,1.395 -1.131,2.526 -2.526,2.526 v 0 c -1.394,0 -2.525,-1.131 -2.525,-2.526"
         id="path380" /></clipPath><linearGradient
       x1="0"
       y1="0"
       x2="1"
       y2="0"
       gradientUnits="userSpaceOnUse"
       gradientTransform="matrix(5.0502467,0,0,-5.0502467,409.98761,662.06537)"
       spreadMethod="pad"
       id="linearGradient394"><stop
         style="stop-opacity:1;stop-color:#343697"
         offset="0"
         id="stop388" /><stop
         style="stop-opacity:1;stop-color:#2d3997"
         offset="0.68244479"
         id="stop390" /><stop
         style="stop-opacity:1;stop-color:#2d3997"
         offset="1"
         id="stop392" /></linearGradient><clipPath
       clipPathUnits="userSpaceOnUse"
       id="clipPath404"><path
         d="m 425.331,689.061 c 0,-1.394 1.131,-2.526 2.525,-2.526 v 0 c 1.395,0 2.525,1.132 2.525,2.526 v 0 c 0,1.395 -1.13,2.525 -2.525,2.525 v 0 c -1.394,0 -2.525,-1.13 -2.525,-2.525"
         id="path402" /></clipPath><linearGradient
       x1="0"
       y1="0"
       x2="1"
       y2="0"
       gradientUnits="userSpaceOnUse"
       gradientTransform="matrix(5.0502467,0,0,-5.0502467,425.33109,689.06104)"
       spreadMethod="pad"
       id="linearGradient416"><stop
         style="stop-opacity:1;stop-color:#2d3997"
         offset="0"
         id="stop410" /><stop
         style="stop-opacity:1;stop-color:#2d3997"
         offset="0.68244479"
         id="stop412" /><stop
         style="stop-opacity:1;stop-color:#2d3997"
         offset="1"
         id="stop414" /></linearGradient><clipPath
       clipPathUnits="userSpaceOnUse"
       id="clipPath426"><path
         d="m 411.116,716.326 c 0,-1.395 1.131,-2.525 2.526,-2.525 v 0 c 1.394,0 2.525,1.13 2.525,2.525 v 0 c 0,1.395 -1.131,2.526 -2.525,2.526 v 0 c -1.395,0 -2.526,-1.131 -2.526,-2.526"
         id="path424" /></clipPath><linearGradient
       x1="0"
       y1="0"
       x2="1"
       y2="0"
       gradientUnits="userSpaceOnUse"
       gradientTransform="matrix(5.0502467,0,0,-5.0502467,411.11627,716.32605)"
       spreadMethod="pad"
       id="linearGradient438"><stop
         style="stop-opacity:1;stop-color:#2f3897"
         offset="0"
         id="stop432" /><stop
         style="stop-opacity:1;stop-color:#2d3997"
         offset="0.68244479"
         id="stop434" /><stop
         style="stop-opacity:1;stop-color:#2d3997"
         offset="1"
         id="stop436" /></linearGradient><clipPath
       clipPathUnits="userSpaceOnUse"
       id="clipPath448"><path
         d="M 0,841.89 H 595.276 V 0 H 0 Z"
         id="path446" /></clipPath><linearGradient
       x1="0"
       y1="0"
       x2="1"
       y2="0"
       gradientUnits="userSpaceOnUse"
       gradientTransform="matrix(12.5532,-1.03568,0.034254,9.53828,-0.1171,841.392)"
       spreadMethod="pad"
       id="linearGradient462"><stop
         style="stop-opacity:1;stop-color:#9f148e"
         offset="0"
         id="stop452" /><stop
         style="stop-opacity:1;stop-color:#831b8f"
         offset="0.47682425"
         id="stop454" /><stop
         style="stop-opacity:1;stop-color:#831b8f"
         offset="0.780485"
         id="stop456" /><stop
         style="stop-opacity:1;stop-color:#7b1d8f"
         offset="0.88452005"
         id="stop458" /><stop
         style="stop-opacity:1;stop-color:#7b1d8f"
         offset="1"
         id="stop460" /></linearGradient><linearGradient
       x1="0"
       y1="0"
       x2="1"
       y2="0"
       gradientUnits="userSpaceOnUse"
       gradientTransform="matrix(8.27451,10.1662,-8.16743,5.64112,-5.4261,817.377)"
       spreadMethod="pad"
       id="linearGradient474"><stop
         style="stop-opacity:1;stop-color:#ba0d8e"
         offset="0"
         id="stop468" /><stop
         style="stop-opacity:1;stop-color:#8f188f"
         offset="0.61093326"
         id="stop470" /><stop
         style="stop-opacity:1;stop-color:#8f188f"
         offset="1"
         id="stop472" /></linearGradient><linearGradient
       x1="0"
       y1="0"
       x2="1"
       y2="0"
       gradientUnits="userSpaceOnUse"
       gradientTransform="matrix(5.86284,-12.0554,8.75163,5.1439,22.0259,851.207)"
       spreadMethod="pad"
       id="linearGradient486"><stop
         style="stop-opacity:1;stop-color:#522b93"
         offset="0"
         id="stop480" /><stop
         style="stop-opacity:1;stop-color:#453296"
         offset="0.61093326"
         id="stop482" /><stop
         style="stop-opacity:1;stop-color:#453296"
         offset="1"
         id="stop484" /></linearGradient><linearGradient
       x1="0"
       y1="0"
       x2="1"
       y2="0"
       gradientUnits="userSpaceOnUse"
       gradientTransform="matrix(6.38316,-13.0782,13.7827,6.67999,8.5229,812.564)"
       spreadMethod="pad"
       id="linearGradient498"><stop
         style="stop-opacity:1;stop-color:#821b8f"
         offset="0"
         id="stop492" /><stop
         style="stop-opacity:1;stop-color:#782f9a"
         offset="0.61284649"
         id="stop494" /><stop
         style="stop-opacity:1;stop-color:#782f9a"
         offset="1"
         id="stop496" /></linearGradient><linearGradient
       x1="0"
       y1="0"
       x2="1"
       y2="0"
       gradientUnits="userSpaceOnUse"
       gradientTransform="matrix(13.866,-2.18309,2.3379,14.587,24.3249,809.856)"
       spreadMethod="pad"
       id="linearGradient510"><stop
         style="stop-opacity:1;stop-color:#542b93"
         offset="0"
         id="stop504" /><stop
         style="stop-opacity:1;stop-color:#303898"
         offset="0.61093326"
         id="stop506" /><stop
         style="stop-opacity:1;stop-color:#303898"
         offset="1"
         id="stop508" /></linearGradient><linearGradient
       x1="0"
       y1="0"
       x2="1"
       y2="0"
       gradientUnits="userSpaceOnUse"
       gradientTransform="matrix(9.49751,11.222,-11.7831,10.0283,32.9159,822.005)"
       spreadMethod="pad"
       id="linearGradient522"><stop
         style="stop-opacity:1;stop-color:#403497"
         offset="0"
         id="stop516" /><stop
         style="stop-opacity:1;stop-color:#493095"
         offset="0.61093326"
         id="stop518" /><stop
         style="stop-opacity:1;stop-color:#493095"
         offset="1"
         id="stop520" /></linearGradient><clipPath
       clipPathUnits="userSpaceOnUse"
       id="clipPath534"><path
         d="m 439.343,720.381 c 2.287,-5.142 4.583,-10.279 6.846,-15.431 v 0 c 0.675,-1.534 1.251,-3.111 1.882,-4.665 v 0 c 0.337,-0.828 0.754,-1.628 1.033,-2.473 v 0 c 1.263,-3.801 1.198,-7.688 0.643,-11.592 v 0 c -0.445,-3.124 -1.225,-6.173 -2.155,-9.184 v 0 c -0.193,-0.625 -0.202,-1.239 0.048,-1.83 v 0 c 0.299,-0.705 0.571,-1.442 0.995,-2.069 v 0 c 1.918,-2.84 3.764,-5.738 5.864,-8.439 v 0 c 2.584,-3.324 5.384,-6.48 8.113,-9.691 v 0 c 0.84,-0.99 1.183,-2.071 0.66,-3.278 v 0 c -0.313,-0.724 -0.723,-1.441 -1.236,-2.035 v 0 c -1.673,-1.94 -3.769,-3.305 -6.15,-4.231 v 0 c -0.803,-0.312 -1.547,-0.707 -2.094,-1.392 v 0 c -0.86,-1.075 -0.873,-2.301 -0.577,-3.56 v 0 c 0.391,-1.66 1.225,-3.117 2.148,-4.528 v 0 c 0.121,-0.183 0.24,-0.383 0.293,-0.592 v 0 c 0.27,-1.08 -0.118,-1.991 -0.911,-2.672 v 0 c -0.71,-0.609 -1.514,-1.122 -2.319,-1.604 v 0 c -1.343,-0.805 -2.722,-1.548 -4.081,-2.324 v 0 c -0.122,-0.068 -0.212,-0.189 -0.373,-0.337 v 0 c 2.017,-0.044 2.792,-0.303 4.102,-1.339 v 0 c 1.612,-1.275 2.186,-3.195 1.443,-4.86 v 0 c -0.15,-0.337 -0.295,-0.656 -0.789,-0.594 v 0 c -0.213,0.027 -0.465,-0.105 -0.673,-0.213 v 0 c -0.903,-0.471 -1.512,-1.231 -1.955,-2.119 v 0 c -1.13,-2.259 -0.936,-4.525 0.058,-6.763 v 0 c 0.621,-1.399 0.794,-2.851 0.437,-4.315 v 0 c -0.989,-4.049 -3.568,-6.732 -7.353,-8.335 v 0 c -0.258,-0.11 -0.511,-0.227 -0.768,-0.34 v 0 c 0.181,-0.08 0.331,-0.067 0.478,-0.034 v 0 c 1.707,0.385 3.262,1.113 4.715,2.076 v 0 c 2.46,1.632 3.643,3.949 3.752,6.871 v 0 c 0.097,2.597 -0.424,5.092 -1.203,7.543 v 0 c -0.165,0.514 -0.174,0.987 -0.057,1.5 v 0 c 0.336,1.478 1.045,2.714 2.548,3.167 v 0 c 0.807,0.245 1.073,0.738 1.275,1.408 v 0 c 0.059,0.199 0.119,0.398 0.172,0.599 v 0 c 0.656,2.561 -0.369,4.623 -2.809,5.636 v 0 c -0.372,0.155 -0.756,0.285 -1.214,0.456 v 0 c 0.782,0.356 1.5,0.659 2.195,1.007 v 0 c 1.465,0.732 2.879,1.547 3.983,2.797 v 0 c 0.887,1.004 0.974,2.126 0.192,3.038 v 0 c -1.034,1.207 -1.775,2.58 -2.403,4.022 v 0 c -0.114,0.263 -0.239,0.534 -0.277,0.812 v 0 c -0.224,1.611 0.334,2.936 1.675,3.825 v 0 c 1.142,0.758 2.363,1.407 3.584,2.033 v 0 c 1.653,0.847 3.118,1.891 4.145,3.474 v 0 c 0.854,1.314 1.085,2.709 0.617,4.216 v 0 c -0.523,1.683 -1.572,3.026 -2.744,4.291 v 0 c -1.665,1.798 -3.383,3.55 -4.991,5.399 v 0 c -2.261,2.604 -4.317,5.361 -5.802,8.506 v 0 c -0.987,2.09 -1.624,4.206 -1.2,6.571 v 0 c 0.548,3.053 0.997,6.123 1.462,9.19 v 0 c 0.418,2.748 0.366,5.449 -0.456,8.16 v 0 c -1.757,5.782 -4.188,11.293 -6.541,16.837 v 0 c -0.924,2.178 -1.924,4.324 -2.94,6.461 v 0 c -0.653,1.374 -1.465,2.661 -2.577,3.763 v 0 c 0.431,-0.939 0.87,-1.875 1.29,-2.819"
         id="path532" /></clipPath><linearGradient
       x1="0"
       y1="0"
       x2="1"
       y2="0"
       gradientUnits="userSpaceOnUse"
       gradientTransform="matrix(26.025223,0,0,-26.025223,438.05414,661.3587)"
       spreadMethod="pad"
       id="linearGradient552"><stop
         style="stop-opacity:1;stop-color:#473095"
         offset="0"
         id="stop540" /><stop
         style="stop-opacity:1;stop-color:#2f3998"
         offset="0.13312686"
         id="stop542" /><stop
         style="stop-opacity:1;stop-color:#2f3998"
         offset="0.280899"
         id="stop544" /><stop
         style="stop-opacity:1;stop-color:#2f3998"
         offset="0.668539"
         id="stop546" /><stop
         style="stop-opacity:1;stop-color:#2f3998"
         offset="0.88764"
         id="stop548" /><stop
         style="stop-opacity:1;stop-color:#2f3998"
         offset="1"
         id="stop550" /></linearGradient><clipPath
       clipPathUnits="userSpaceOnUse"
       id="clipPath562"><path
         d="M 0,841.89 H 595.276 V 0 H 0 Z"
         id="path560" /></clipPath></defs><sodipodi:namedview
     pagecolor="#ffffff"
     bordercolor="#666666"
     borderopacity="1"
     objecttolerance="10"
     gridtolerance="10"
     guidetolerance="10"
     inkscape:pageopacity="0"
     inkscape:pageshadow="2"
     inkscape:window-width="1920"
     inkscape:window-height="1009"
     id="namedview4"
     showgrid="false"
     fit-margin-top="0"
     fit-margin-left="0"
     fit-margin-right="0"
     fit-margin-bottom="0"
     inkscape:zoom="8.48639"
     inkscape:cx="82.60285"
     inkscape:cy="57.032496"
     inkscape:window-x="-8"
     inkscape:window-y="1072"
     inkscape:window-maximized="1"
     inkscape:current-layer="g10"
     inkscape:document-rotation="0"
     inkscape:showpageshadow="2"
     inkscape:pagecheckerboard="0"
     inkscape:deskcolor="#d1d1d1" /><g
     id="g10"
     inkscape:groupmode="layer"
     inkscape:label="logo_aratech"
     transform="matrix(1.3333333,0,0,-1.3333333,-477.19065,969.07931)"><g
       id="g1936"
       transform="translate(-6.1863762,-0.08597115)"><g
         id="g12"><g
           id="g14"
           clip-path="url(#clipPath18)"><g
             id="g20"><g
               id="g22"><path
                 d="m 389.767,675.961 c 0,-2.934 2.379,-5.313 5.314,-5.313 v 0 c 2.935,0 5.314,2.379 5.314,5.313 v 0 c 0,2.935 -2.379,5.314 -5.314,5.314 v 0 c -2.935,0 -5.314,-2.379 -5.314,-5.314"
                 style="fill:url(#linearGradient34);stroke:none"
                 id="path36" /></g></g></g></g><g
         id="g38"><g
           id="g40"
           clip-path="url(#clipPath44)"><g
             id="g46"><g
               id="g48"><path
                 d="m 364.453,674.334 c 0,-4.583 3.714,-8.297 8.296,-8.297 v 0 c 4.582,0 8.297,3.714 8.297,8.297 v 0 c 0,4.581 -3.715,8.296 -8.297,8.296 v 0 c -4.582,0 -8.296,-3.715 -8.296,-8.296"
                 style="fill:url(#linearGradient60);stroke:none"
                 id="path62" /></g></g></g></g><g
         id="g64"><g
           id="g66"
           clip-path="url(#clipPath70)"><g
             id="g72"><g
               id="g74"><path
                 d="m 366.594,709.069 c -3.24,-3.24 -3.24,-8.493 0,-11.733 v 0 c 3.24,-3.24 8.493,-3.24 11.733,0 v 0 c 3.241,3.24 3.241,8.493 0,11.733 v 0 c -1.62,1.62 -3.743,2.43 -5.867,2.43 v 0 c -2.123,0 -4.246,-0.81 -5.866,-2.43"
                 style="fill:url(#linearGradient86);stroke:none"
                 id="path88" /></g></g></g></g><g
         id="g90"><g
           id="g92"
           clip-path="url(#clipPath96)"><g
             id="g98"
             transform="translate(403.4687,724.3795)"><path
               d="m 0,0 c 3.239,-3.24 3.239,-8.493 0,-11.733 -3.24,-3.24 -8.493,-3.24 -11.733,0 -3.241,3.24 -3.241,8.493 0,11.733 C -8.493,3.24 -3.24,3.24 0,0"
               style="fill:#782f9a;fill-opacity:1;fill-rule:nonzero;stroke:none"
               id="path100" /></g></g></g><g
         id="g102"><g
           id="g104"
           clip-path="url(#clipPath108)"><g
             id="g110"><g
               id="g112"><path
                 d="m 390.722,663.014 c -1.818,-4.205 0.116,-9.089 4.321,-10.908 v 0 c 4.206,-1.819 9.089,0.115 10.908,4.321 v 0 c 1.819,4.204 -0.115,9.089 -4.321,10.908 v 0 c -1.073,0.464 -2.19,0.684 -3.289,0.684 v 0 c -3.209,0 -6.264,-1.873 -7.619,-5.005"
                 style="fill:url(#linearGradient124);stroke:none"
                 id="path126" /></g></g></g></g><g
         id="g128"><g
           id="g130"
           clip-path="url(#clipPath134)"><g
             id="g136"><g
               id="g138"><path
                 d="m 415.538,674.962 c 0,-4.582 3.713,-8.296 8.296,-8.296 v 0 c 4.582,0 8.296,3.714 8.296,8.296 v 0 c 0,4.582 -3.714,8.296 -8.296,8.296 v 0 c -4.583,0 -8.296,-3.714 -8.296,-8.296"
                 style="fill:url(#linearGradient150);stroke:none"
                 id="path152" /></g></g></g></g><g
         id="g154"><g
           id="g156"
           clip-path="url(#clipPath160)"><g
             id="g162"><g
               id="g164"><path
                 d="m 414.788,704.417 c 0,-4.582 3.714,-8.297 8.296,-8.297 v 0 c 4.582,0 8.297,3.715 8.297,8.297 v 0 c 0,4.581 -3.715,8.296 -8.297,8.296 v 0 c -4.582,0 -8.296,-3.715 -8.296,-8.296"
                 style="fill:url(#linearGradient176);stroke:none"
                 id="path178" /></g></g></g></g><g
         id="g180"><g
           id="g182"
           clip-path="url(#clipPath186)"><g
             id="g188"><g
               id="g190"><path
                 d="m 383.09,690.131 c -2.749,-1.029 -4.142,-4.091 -3.114,-6.839 v 0 c 1.029,-2.749 4.092,-4.142 6.839,-3.113 v 0 c 2.748,1.028 4.143,4.09 3.114,6.839 v 0 c -0.799,2.134 -2.824,3.451 -4.977,3.451 v 0 c -0.619,0 -1.249,-0.109 -1.862,-0.338"
                 style="fill:url(#linearGradient202);stroke:none"
                 id="path204" /></g></g></g></g><g
         id="g206"><g
           id="g208"
           clip-path="url(#clipPath212)"><g
             id="g214"><g
               id="g216"><path
                 d="m 384.068,702.206 c -2.076,-2.075 -2.076,-5.44 0,-7.515 v 0 c 2.074,-2.075 5.439,-2.075 7.514,0 v 0 c 2.075,2.075 2.075,5.44 0,7.515 v 0 c -1.038,1.037 -2.398,1.556 -3.758,1.556 v 0 c -1.359,0 -2.719,-0.519 -3.756,-1.556"
                 style="fill:url(#linearGradient228);stroke:none"
                 id="path230" /></g></g></g></g><g
         id="g232"><g
           id="g234"
           clip-path="url(#clipPath238)"><g
             id="g240"><g
               id="g242"><path
                 d="m 399.032,707.663 c -2.748,-1.03 -4.143,-4.092 -3.114,-6.839 v 0 c 1.03,-2.749 4.091,-4.143 6.84,-3.114 v 0 c 2.748,1.029 4.143,4.091 3.113,6.839 v 0 c -0.8,2.135 -2.825,3.452 -4.977,3.452 v 0 c -0.619,0 -1.248,-0.109 -1.862,-0.338"
                 style="fill:url(#linearGradient254);stroke:none"
                 id="path256" /></g></g></g></g><g
         id="g258"><g
           id="g260"
           clip-path="url(#clipPath264)"><g
             id="g266"><g
               id="g268"><path
                 d="m 405.86,693.741 c -0.252,-2.924 1.915,-5.498 4.838,-5.751 v 0 c 2.924,-0.252 5.498,1.913 5.75,4.837 v 0 c 0.252,2.924 -1.913,5.499 -4.837,5.75 v 0 c -0.155,0.014 -0.31,0.02 -0.463,0.02 v 0 c -2.728,0 -5.048,-2.089 -5.288,-4.856"
                 style="fill:url(#linearGradient280);stroke:none"
                 id="path282" /></g></g></g></g><g
         id="g284"><g
           id="g286"
           clip-path="url(#clipPath290)"><g
             id="g292"><g
               id="g294"><path
                 d="m 403.582,682.857 c -1.658,-2.422 -1.039,-5.729 1.382,-7.386 v 0 c 2.422,-1.659 5.729,-1.04 7.386,1.381 v 0 c 1.659,2.421 1.04,5.729 -1.381,7.386 v 0 c -0.918,0.629 -1.964,0.93 -2.998,0.93 v 0 c -1.694,0 -3.36,-0.808 -4.389,-2.311"
                 style="fill:url(#linearGradient306);stroke:none"
                 id="path308" /></g></g></g></g><g
         id="g310"><g
           id="g312"
           clip-path="url(#clipPath316)"><g
             id="g318"><g
               id="g320"><path
                 d="m 365.742,689.179 c 0,-1.395 1.131,-2.525 2.525,-2.525 v 0 c 1.395,0 2.526,1.13 2.526,2.525 v 0 c 0,1.395 -1.131,2.525 -2.526,2.525 v 0 c -1.394,0 -2.525,-1.13 -2.525,-2.525"
                 style="fill:url(#linearGradient328);stroke:none"
                 id="path330" /></g></g></g></g><g
         id="g332"><g
           id="g334"
           clip-path="url(#clipPath338)"><g
             id="g340"><g
               id="g342"><path
                 d="m 379.652,716.326 c 0,-1.395 1.131,-2.525 2.526,-2.525 v 0 c 1.394,0 2.525,1.13 2.525,2.525 v 0 c 0,1.395 -1.131,2.526 -2.525,2.526 v 0 c -1.395,0 -2.526,-1.131 -2.526,-2.526"
                 style="fill:url(#linearGradient350);stroke:none"
                 id="path352" /></g></g></g></g><g
         id="g354"><g
           id="g356"
           clip-path="url(#clipPath360)"><g
             id="g362"><g
               id="g364"><path
                 d="m 380.801,662.065 c 0,-1.394 1.13,-2.525 2.525,-2.525 v 0 c 1.394,0 2.526,1.131 2.526,2.525 v 0 c 0,1.395 -1.132,2.526 -2.526,2.526 v 0 c -1.395,0 -2.525,-1.131 -2.525,-2.526"
                 style="fill:url(#linearGradient372);stroke:none"
                 id="path374" /></g></g></g></g><g
         id="g376"><g
           id="g378"
           clip-path="url(#clipPath382)"><g
             id="g384"><g
               id="g386"><path
                 d="m 409.987,662.065 c 0,-1.394 1.131,-2.525 2.525,-2.525 v 0 c 1.395,0 2.526,1.131 2.526,2.525 v 0 c 0,1.395 -1.131,2.526 -2.526,2.526 v 0 c -1.394,0 -2.525,-1.131 -2.525,-2.526"
                 style="fill:url(#linearGradient394);stroke:none"
                 id="path396" /></g></g></g></g><g
         id="g398"><g
           id="g400"
           clip-path="url(#clipPath404)"><g
             id="g406"><g
               id="g408"><path
                 d="m 425.331,689.061 c 0,-1.394 1.131,-2.526 2.525,-2.526 v 0 c 1.395,0 2.525,1.132 2.525,2.526 v 0 c 0,1.395 -1.13,2.525 -2.525,2.525 v 0 c -1.394,0 -2.525,-1.13 -2.525,-2.525"
                 style="fill:url(#linearGradient416);stroke:none"
                 id="path418" /></g></g></g></g><g
         id="g420"><g
           id="g422"
           clip-path="url(#clipPath426)"><g
             id="g428"><g
               id="g430"><path
                 d="m 411.116,716.326 c 0,-1.395 1.131,-2.525 2.526,-2.525 v 0 c 1.394,0 2.525,1.13 2.525,2.525 v 0 c 0,1.395 -1.131,2.526 -2.525,2.526 v 0 c -1.395,0 -2.526,-1.131 -2.526,-2.526"
                 style="fill:url(#linearGradient438);stroke:none"
                 id="path440" /></g></g></g></g><g
         id="g450"
         transform="translate(379.7061,672.361)"><path
           d="M 0,0 C 4.198,0.069 8.243,0.821 11.988,2.147"
           style="fill:none;stroke:url(#linearGradient462);stroke-width:2;stroke-linecap:butt;stroke-linejoin:miter;stroke-miterlimit:10;stroke-dasharray:none;stroke-opacity:1"
           id="path464" /></g><g
         id="g466"
         transform="translate(373.4619,696.1974)"><path
           d="M 0,0 C 2.336,-3.198 5.606,-6.094 9.689,-8.275"
           style="fill:none;stroke:url(#linearGradient474);stroke-width:2;stroke-linecap:butt;stroke-linejoin:miter;stroke-miterlimit:10;stroke-dasharray:none;stroke-opacity:1"
           id="path476" /></g><g
         id="g478"
         transform="translate(401.4424,663.7916)"><path
           d="M 0,0 C 3.085,3.268 5.045,7.115 5.809,10.992"
           style="fill:none;stroke:url(#linearGradient486);stroke-width:2;stroke-linecap:butt;stroke-linejoin:miter;stroke-miterlimit:10;stroke-dasharray:none;stroke-opacity:1"
           id="path488" /></g><g
         id="g490"
         transform="translate(387.8789,702.0406)"><path
           d="M 0,0 C 1.191,4.3 3.698,8.511 7.43,12.031"
           style="fill:none;stroke:url(#linearGradient498);stroke-width:2;stroke-linecap:butt;stroke-linejoin:miter;stroke-miterlimit:10;stroke-dasharray:none;stroke-opacity:1"
           id="path500" /></g><g
         id="g502"
         transform="translate(404.252,704.0616)"><path
           d="M 0,0 C 4.227,1.498 8.794,2.346 13.532,2.424"
           style="fill:none;stroke:url(#linearGradient510);stroke-width:2;stroke-linecap:butt;stroke-linejoin:miter;stroke-miterlimit:10;stroke-dasharray:none;stroke-opacity:1"
           id="path512" /></g><g
         id="g514"
         transform="translate(412.083,691.3932)"><path
           d="M 0,0 C 4.512,-2.647 8.051,-6.09 10.485,-9.837"
           style="fill:none;stroke:url(#linearGradient522);stroke-width:2;stroke-linecap:butt;stroke-linejoin:miter;stroke-miterlimit:10;stroke-dasharray:none;stroke-opacity:1"
           id="path524" /></g></g></g></svg>
