<?xml version="1.0" encoding="UTF-8" standalone="no"?>
<svg
   xmlns:dc="http://purl.org/dc/elements/1.1/"
   xmlns:cc="http://creativecommons.org/ns#"
   xmlns:rdf="http://www.w3.org/1999/02/22-rdf-syntax-ns#"
   xmlns:svg="http://www.w3.org/2000/svg"
   xmlns="http://www.w3.org/2000/svg"
   xmlns:sodipodi="http://sodipodi.sourceforge.net/DTD/sodipodi-0.dtd"
   xmlns:inkscape="http://www.inkscape.org/namespaces/inkscape"
   viewBox="0 0 512.05194 448.10001"
   version="1.1"
   id="svg4"
   sodipodi:docname="communication.svg"
   width="512.05194"
   height="448.10001"
   inkscape:version="1.0.1 (3bc2e813f5, 2020-09-07)">
  <metadata
     id="metadata10">
    <rdf:RDF>
      <cc:Work
         rdf:about="">
        <dc:format>image/svg+xml</dc:format>
        <dc:type
           rdf:resource="http://purl.org/dc/dcmitype/StillImage" />
        <dc:title></dc:title>
      </cc:Work>
    </rdf:RDF>
  </metadata>
  <defs
     id="defs8" />
  <sodipodi:namedview
     pagecolor="#ffffff"
     bordercolor="#666666"
     borderopacity="1"
     objecttolerance="10"
     gridtolerance="10"
     guidetolerance="10"
     inkscape:pageopacity="0"
     inkscape:pageshadow="2"
     inkscape:window-width="1920"
     inkscape:window-height="1009"
     id="namedview6"
     showgrid="false"
     fit-margin-top="0"
     fit-margin-left="0"
     fit-margin-right="0"
     fit-margin-bottom="0"
     inkscape:zoom="0.82226563"
     inkscape:cx="191.11334"
     inkscape:cy="156.21176"
     inkscape:window-x="-8"
     inkscape:window-y="-8"
     inkscape:window-maximized="1"
     inkscape:current-layer="svg4" />
  <!--! Font Awesome Pro 6.3.0 by @fontawesome - https://fontawesome.com License - https://fontawesome.com/license (Commercial License) Copyright 2023 Fonticons, Inc. -->
  <path
     d="m 256.05195,416 c 141.4,0 256,-93.1 256,-208 0,-114.9 -114.6,-208 -256,-208 -141.4,0 -255.9999962,93.1 -255.9999962,208 0,45.1 17.7000002,86.8 47.7000002,120.9 -1.9,24.5 -11.4,46.3 -21.4,62.9 -5.5,9.2 -11.1,16.6 -15.2,21.6 -2.1000002,2.5 -3.7000002,4.4 -4.9000002,5.7 -0.6,0.6 -1,1.1 -1.3,1.4 l -0.3,0.3 v 0 0 0 0 c -4.6,4.6 -5.9,11.4 -3.4,17.4 2.5,6 8.3,9.9 14.8000002,9.9 28.7,0 57.6,-8.9 81.6,-19.3 22.899996,-10 42.399996,-21.9 54.299996,-30.6 31.8,11.5 67,17.9 104.1,17.9 z m -128,-240 a 32,32 0 1 1 0,64 32,32 0 1 1 0,-64 z m 128,0 a 32,32 0 1 1 0,64 32,32 0 1 1 0,-64 z m 96,32 a 32,32 0 1 1 64,0 32,32 0 1 1 -64,0 z"
     id="path2" />
</svg>
