<?xml version="1.0" encoding="UTF-8" standalone="no"?>
<svg
   xmlns:dc="http://purl.org/dc/elements/1.1/"
   xmlns:cc="http://creativecommons.org/ns#"
   xmlns:rdf="http://www.w3.org/1999/02/22-rdf-syntax-ns#"
   xmlns:svg="http://www.w3.org/2000/svg"
   xmlns="http://www.w3.org/2000/svg"
   xmlns:sodipodi="http://sodipodi.sourceforge.net/DTD/sodipodi-0.dtd"
   xmlns:inkscape="http://www.inkscape.org/namespaces/inkscape"
   viewBox="0 0 480 480"
   version="1.1"
   id="svg4"
   sodipodi:docname="soins.svg"
   width="480"
   height="480"
   inkscape:version="1.0.1 (3bc2e813f5, 2020-09-07)">
  <metadata
     id="metadata10">
    <rdf:RDF>
      <cc:Work
         rdf:about="">
        <dc:format>image/svg+xml</dc:format>
        <dc:type
           rdf:resource="http://purl.org/dc/dcmitype/StillImage" />
        <dc:title></dc:title>
      </cc:Work>
    </rdf:RDF>
  </metadata>
  <defs
     id="defs8" />
  <sodipodi:namedview
     pagecolor="#ffffff"
     bordercolor="#666666"
     borderopacity="1"
     objecttolerance="10"
     gridtolerance="10"
     guidetolerance="10"
     inkscape:pageopacity="0"
     inkscape:pageshadow="2"
     inkscape:window-width="1920"
     inkscape:window-height="1009"
     id="namedview6"
     showgrid="false"
     fit-margin-top="0"
     fit-margin-left="0"
     fit-margin-right="0"
     fit-margin-bottom="0"
     inkscape:zoom="0.5814296"
     inkscape:cx="78.274126"
     inkscape:cy="160.12087"
     inkscape:window-x="-8"
     inkscape:window-y="-8"
     inkscape:window-maximized="1"
     inkscape:current-layer="svg4" />
  <!--! Font Awesome Pro 6.3.0 by @fontawesome - https://fontawesome.com License - https://fontawesome.com/license (Commercial License) Copyright 2023 Fonticons, Inc. -->
  <path
     d="M 96,320 V 64 C 96,28.7 124.7,0 160,0 h 256 c 35.3,0 64,28.7 64,64 v 197.5 c 0,17 -6.7,33.3 -18.7,45.3 l -58.5,58.5 c -12,12 -28.3,18.7 -45.3,18.7 H 160 C 124.7,384 96,355.3 96,320 Z M 272,96 c -8.8,0 -16,7.2 -16,16 v 48 h -48 c -8.8,0 -16,7.2 -16,16 v 32 c 0,8.8 7.2,16 16,16 h 48 v 48 c 0,8.8 7.2,16 16,16 h 32 c 8.8,0 16,-7.2 16,-16 v -48 h 48 c 8.8,0 16,-7.2 16,-16 v -32 c 0,-8.8 -7.2,-16 -16,-16 h -48 v -48 c 0,-8.8 -7.2,-16 -16,-16 z m 24,336 c 13.3,0 24,10.7 24,24 0,13.3 -10.7,24 -24,24 H 136 C 60.9,480 0,419.1 0,344 V 120 c 0,-13.3 10.7,-24 24,-24 13.3,0 24,10.7 24,24 v 224 c 0,48.6 39.4,88 88,88 z"
     id="path2" />
</svg>
